<svg xmlns="http://www.w3.org/2000/svg" fill="none" viewBox="0 0 24 24" stroke-width="1.5" stroke="currentColor"><path stroke-linecap="round" stroke-linejoin="round" d="M2.25 6.75a2.25 2.25 0 012.25-2.25h1.379c.46 0 .894.206 1.185.558l.823.98c.251.3.62.462 1.005.43h7.564c.372-.025.732.146.959.454l1.298 1.707h1.302a2.25 2.25 0 012.25 2.25v7.5a2.25 2.25 0 01-2.25 2.25H4.5A2.25 2.25 0 012.25 17.25V6.75z"/><path stroke-linecap="round" stroke-linejoin="round" d="M10.125 12.75a1.125 1.125 0 102.25 0 1.125 1.125 0 00-2.25 0z"/></svg>
