<?xml version="1.0" encoding="utf-8"?>
<!-- Generator: Adobe Illustrator 25.0.0, SVG Export Plug-In . SVG Version: 6.00 Build 0)  -->
<svg version="1.1" id="图层_1" xmlns="http://www.w3.org/2000/svg" xmlns:xlink="http://www.w3.org/1999/xlink" x="0px" y="0px"
	 viewBox="0 0 16 16" style="enable-background:new 0 0 16 16;" xml:space="preserve">
<style type="text/css">
	.st0{fill:#262626;}
</style>
<path class="st0" d="M12.8,12.2L8.7,8l4.2-4.2c0.2-0.2,0.2-0.5,0-0.7s-0.5-0.2-0.7,0L8,7.3L3.8,3.2C3.7,3,3.3,3,3.2,3.2
	S3,3.7,3.2,3.8L7.3,8l-4.2,4.2c0,0,0,0,0,0c-0.2,0.2-0.2,0.5,0,0.7C3.2,12.9,3.4,13,3.5,13c0.1,0,0.3-0.1,0.3-0.2L8,8.7l4.2,4.2
	c0.1,0.1,0.2,0.2,0.3,0.2c0.1,0,0.3-0.1,0.3-0.2c0,0,0,0,0,0C13.1,12.6,13,12.3,12.8,12.2z"/>
</svg>
